<svg xmlns="http://www.w3.org/2000/svg" xmlns:xlink="http://www.w3.org/1999/xlink" x="0px" y="0px" width="64px" height="64px" viewBox="0 0 64 64"><g transform="translate(0, 0)"><path d="M57.515,23.167A6.964,6.964,0,0,0,56,23H39V12c0-9.886-8.91-10-9-10a1,1,0,0,0-1,.93,59.358,59.358,0,0,1-2.94,14.72c-.889,2.385-2.832,4.615-4.709,6.771-2.234,2.567-4.544,5.221-5.324,8.336A1,1,0,0,0,16,33V60a1,1,0,0,0,1,1H50.664A6.961,6.961,0,0,0,57.5,55.517l5.334-24A7.008,7.008,0,0,0,57.515,23.167Z" fill="#eda78c"></path><rect data-color="color-2" x="1" y="27" width="13" height="34" rx="1" fill="#f30b41"></rect></g></svg>